HIERARCHY
ROOT joint_Root
{
	OFFSET 0.0 0.0 0.0
	CHANNELS 6 Xposition Yposition Zposition Zrotation Xrotation Yrotation 
	JOINT Hips
	{
		OFFSET -17.1583 93.1646 452.98
		CHANNELS 6 Xposition Yposition Zposition Zrotation Xrotation Yrotation 
		JOINT Spine
		{
			OFFSET 15.7357 0.0 0.0
			CHANNELS 6 Xposition Yposition Zposition Zrotation Xrotation Yrotation 
			JOINT Chest
			{
				OFFSET 8.98455 -0.406207 0.0
				CHANNELS 6 Xposition Yposition Zposition Zrotation Xrotation Yrotation 
				JOINT Neck
				{
					OFFSET 16.3773 0.0 0.0
					CHANNELS 6 Xposition Yposition Zposition Zrotation Xrotation Yrotation 
					JOINT Head
					{
						OFFSET 6.45672 0.0 0.0
						CHANNELS 6 Xposition Yposition Zposition Zrotation Xrotation Yrotation 
						End Site
						{
							OFFSET 0.0 0.0 0.0
						}
					}
				}
				JOINT Shoulder_L
				{
					OFFSET 12.9942 -0.242716 4.98039
					CHANNELS 6 Xposition Yposition Zposition Zrotation Xrotation Yrotation 
					JOINT UpperArm_L
					{
						OFFSET 5.34809 0.0 0.0
						CHANNELS 6 Xposition Yposition Zposition Zrotation Xrotation Yrotation 
						JOINT LowerArm_L
						{
							OFFSET 24.3286 1.87007e-05 0.0
							CHANNELS 6 Xposition Yposition Zposition Zrotation Xrotation Yrotation 
							JOINT Hand_L
							{
								OFFSET 22.2916 0.0 0.0
								CHANNELS 6 Xposition Yposition Zposition Zrotation Xrotation Yrotation 
								End Site
								{
									OFFSET 0.0 0.0 0.0
								}
							}
						}
					}
				}
				JOINT Shoulder_R
				{
					OFFSET 12.9945 -0.242716 -4.98039
					CHANNELS 6 Xposition Yposition Zposition Zrotation Xrotation Yrotation 
					JOINT UpperArm_R
					{
						OFFSET -5.34813 0.0 0.0
						CHANNELS 6 Xposition Yposition Zposition Zrotation Xrotation Yrotation 
						JOINT LowerArm_R
						{
							OFFSET -24.3289 0.000322201 0.0
							CHANNELS 6 Xposition Yposition Zposition Zrotation Xrotation Yrotation 
							JOINT Hand_R
							{
								OFFSET -22.2915 -0.000108084 0.0
								CHANNELS 6 Xposition Yposition Zposition Zrotation Xrotation Yrotation 
								End Site
								{
									OFFSET 0.0 0.0 0.0
								}
							}
						}
					}
				}
			}
		}
		JOINT UpperLeg_L
		{
			OFFSET -2.19248 -6.46944 0.0
			CHANNELS 6 Xposition Yposition Zposition Zrotation Xrotation Yrotation 
			JOINT LowerLeg_L
			{
				OFFSET 39.0811 0.0 -1.23785e-05
				CHANNELS 6 Xposition Yposition Zposition Zrotation Xrotation Yrotation 
				JOINT Foot_L
				{
					OFFSET 40.9854 0.0 -1.26872e-05
					CHANNELS 6 Xposition Yposition Zposition Zrotation Xrotation Yrotation 
					JOINT Toes_L
					{
						OFFSET 11.7543 0.0 0.0
						CHANNELS 6 Xposition Yposition Zposition Zrotation Xrotation Yrotation 
						End Site
						{
							OFFSET 0.0 0.0 0.0
						}
					}
				}
			}
		}
		JOINT UpperLeg_R
		{
			OFFSET -2.19251 6.46944 0.0
			CHANNELS 6 Xposition Yposition Zposition Zrotation Xrotation Yrotation 
			JOINT LowerLeg_R
			{
				OFFSET -39.0811 -0.00228153 -0.0401928
				CHANNELS 6 Xposition Yposition Zposition Zrotation Xrotation Yrotation 
				JOINT Foot_R
				{
					OFFSET -40.9854 0.0 0.0
					CHANNELS 6 Xposition Yposition Zposition Zrotation Xrotation Yrotation 
					JOINT Toes_R
					{
						OFFSET -11.7543 0.0 0.0
						CHANNELS 6 Xposition Yposition Zposition Zrotation Xrotation Yrotation 
						End Site
						{
							OFFSET 0.0 0.0 0.0
						}
					}
				}
			}
		}
	}
}
MOTION
Frames:	6
Frame Time:	0.0333333
0.000000 0.000000 0.000000 0.000000 0.000000 -0.000000 -0.096284 92.237800 27.892700 -88.704200 3.010570 169.278000 15.735700 0.000005 -0.000001 51.516000 85.085900 -49.600200 8.984550 -0.406207 -0.000000 0.038511 -6.243600 3.834150 16.377300 -0.000001 -0.000001 -2.834800 6.152380 -4.551950 6.456720 -0.000001 -0.000000 1.635010 9.207070 -3.130840 12.994200 -0.242716 4.980390 -92.290100 7.280040 -72.485300 5.348090 -0.000007 -0.000001 -73.466400 -9.494440 -1.622220 24.328600 0.000019 0.000005 50.503200 11.782200 -80.446700 22.291600 -0.000001 0.000005 46.174500 4.089720 22.937500 12.994500 -0.242716 -4.980390 89.552100 1.480790 -73.168800 -5.348130 -0.000001 -0.000004 -59.113200 -13.982300 25.782200 -24.328900 0.000322 -0.000009 -0.757528 -1.737170 -23.535600 -22.291500 -0.000108 -0.000004 59.735000 5.388880 -2.580060 -2.192480 -6.469440 -0.000000 177.790000 -3.668190 0.372393 39.081100 -0.000007 -0.000012 0.122058 -0.095829 51.863300 40.985400 -0.000006 -0.000013 -11.323200 4.814670 -32.401800 11.754300 -0.000000 0.000003 0.002402 0.068326 -13.805600 -2.192510 6.469440 -0.000001 -177.660000 -7.717250 149.582000 -39.081100 -0.002282 -0.040193 0.006132 -0.010164 15.413700 -40.985400 0.000008 0.000006 -9.968680 -9.386770 -76.548200 -11.754300 -0.000006 -0.000006 0.000059 0.166677 -9.813030
0.000000 0.000000 0.000000 0.000000 0.000000 -0.000000 0.506481 89.516200 18.890400 -86.414300 2.632440 168.185000 15.735700 0.000005 -0.000001 61.548400 85.910200 -58.801600 8.984550 -0.406207 -0.000000 -0.469438 -4.093360 5.475820 16.377300 -0.000001 -0.000001 -3.042140 5.228060 -4.332060 6.456720 -0.000001 -0.000000 0.975562 7.593210 -2.889600 12.994200 -0.242716 4.980390 -93.153000 9.737000 -71.959000 5.348090 -0.000007 -0.000001 -71.323400 -11.307300 0.230031 24.328600 0.000019 0.000005 52.607900 16.876400 -77.489400 22.291600 -0.000001 0.000005 44.683200 4.198690 21.330600 12.994500 -0.242716 -4.980390 89.124500 2.899870 -73.192800 -5.348130 -0.000001 -0.000004 -60.053700 -12.122700 21.408600 -24.328900 0.000322 -0.000009 -0.910249 -1.946340 -25.044200 -22.291500 -0.000108 -0.000004 60.119400 5.394260 -2.751950 -2.192480 -6.469440 -0.000000 -178.094000 -6.264140 -8.944340 39.081100 -0.000007 -0.000012 0.352348 -0.128844 69.913300 40.985400 -0.000006 -0.000013 -10.725500 1.441480 -34.235500 11.754300 -0.000000 0.000003 0.002338 0.063301 -14.009300 -2.192510 6.469440 -0.000001 -172.024000 -3.927270 142.557000 -39.081100 -0.002282 -0.040193 0.181602 -0.275505 32.911000 -40.985400 0.000008 0.000006 0.486124 -10.430000 -66.958000 -11.754300 -0.000006 -0.000006 -0.004940 0.228555 -7.296210
0.000000 0.000000 0.000000 0.000000 0.000000 -0.000000 0.860600 86.281000 9.781970 -86.336900 1.772200 170.284000 15.735700 0.000005 -0.000001 76.807500 85.318100 -74.235100 8.984550 -0.406207 -0.000000 1.408260 -2.278620 5.168870 16.377300 -0.000001 -0.000001 -4.204750 3.822470 -3.182060 6.456720 -0.000001 -0.000000 -0.128999 5.703950 -2.848360 12.994200 -0.242716 4.980390 -93.678600 11.480600 -72.098900 5.348090 -0.000007 -0.000001 -67.967900 -17.904100 2.757740 24.328600 0.000019 0.000005 50.302000 19.548100 -74.475900 22.291600 -0.000001 0.000005 43.804900 4.205960 21.222200 12.994500 -0.242716 -4.980390 88.630700 4.482440 -72.993300 -5.348130 -0.000001 -0.000004 -61.833600 -9.268470 14.577100 -24.328900 0.000322 -0.000009 -1.636430 -3.254860 -26.693800 -22.291500 -0.000108 -0.000004 61.815600 5.379570 -2.285740 -2.192480 -6.469440 -0.000000 -176.427000 -6.389530 -16.794300 39.081100 -0.000007 -0.000012 0.512875 -0.032032 86.425300 40.985400 -0.000006 -0.000013 -10.588300 -4.524760 -36.192200 11.754300 -0.000000 0.000003 0.002302 0.060950 -14.104600 -2.192510 6.469440 -0.000001 -170.958000 0.372398 142.109000 -39.081100 -0.002282 -0.040193 -0.015947 0.016333 49.606100 -40.985400 0.000008 0.000006 -1.993330 -6.227690 -77.358300 -11.754300 -0.000006 -0.000006 -0.009461 0.267232 -5.717550
0.000000 0.000000 0.000000 0.000000 0.000000 -0.000000 1.335070 84.055400 0.875278 -85.851300 1.692710 171.738000 15.735700 0.000005 -0.000001 88.452100 84.383600 -85.998900 8.984550 -0.406207 -0.000000 3.475970 -0.394778 4.913060 16.377300 -0.000001 -0.000001 -5.442470 3.192770 -2.551940 6.456720 -0.000001 -0.000000 -1.696330 3.688620 -2.294490 12.994200 -0.242716 4.980390 -93.897000 11.629500 -71.328700 5.348090 -0.000007 -0.000001 -63.952000 -24.555300 6.420620 24.328600 0.000019 0.000005 45.573300 19.940600 -71.515700 22.291600 -0.000001 0.000005 45.503100 4.151550 22.031800 12.994500 -0.242716 -4.980390 88.470700 5.226010 -73.664100 -5.348130 -0.000001 -0.000004 -63.909900 -6.414360 6.852770 -24.328900 0.000322 -0.000009 -2.032180 -3.209340 -32.358100 -22.291500 -0.000108 -0.000004 61.716000 5.382710 -2.384180 -2.192480 -6.469440 -0.000000 -175.279000 -6.478820 -26.410000 39.081100 -0.000007 -0.000012 0.363735 0.054316 98.491300 40.985400 -0.000006 -0.000013 -5.906770 -3.913270 -39.241900 11.754300 -0.000000 0.000003 0.002364 0.065163 -13.933800 -2.192510 6.469440 -0.000001 -170.335000 1.835400 146.933000 -39.081100 -0.002282 -0.040193 -0.000999 0.002772 56.684900 -40.985400 0.000008 0.000006 -2.605210 -4.654480 -86.498400 -11.754300 -0.000006 -0.000006 -0.005760 0.236304 -6.980310
0.000000 0.000000 0.000000 0.000000 0.000000 -0.000000 1.491150 83.676700 -8.160890 -86.573000 1.635040 171.771000 15.735700 0.000005 -0.000001 98.937100 84.429300 -96.830000 8.984550 -0.406207 -0.000000 3.214480 1.645290 4.163660 16.377300 -0.000001 -0.000001 -5.199170 2.416080 -2.076680 6.456720 -0.000001 -0.000000 -1.234720 1.740220 -2.779020 12.994200 -0.242716 4.980390 -93.885000 11.014100 -70.432000 5.348090 -0.000007 -0.000001 -57.984400 -28.467100 12.924100 24.328600 0.000019 0.000005 46.005600 20.835300 -71.046900 22.291600 -0.000001 0.000005 46.609800 4.165240 21.829900 12.994500 -0.242716 -4.980390 88.469700 5.365330 -74.054900 -5.348130 -0.000001 -0.000004 -64.231500 -5.046930 2.848000 -24.328900 0.000322 -0.000009 -0.761516 -0.789508 -43.952300 -22.291500 -0.000108 -0.000004 62.114900 5.369060 -1.957890 -2.192480 -6.469440 -0.000000 -175.964000 -5.334560 -36.304200 39.081100 -0.000007 -0.000012 0.243307 0.056665 103.108000 40.985400 -0.000006 -0.000013 -4.889600 -3.357390 -44.615700 11.754300 -0.000000 0.000003 0.002384 0.066745 -13.869700 -2.192510 6.469440 -0.000001 -171.742000 3.035250 154.532000 -39.081100 -0.002282 -0.040193 0.003752 -0.000361 55.685900 -40.985400 0.000008 0.000006 -3.679560 -2.531010 -90.966600 -11.754300 -0.000006 -0.000006 -0.000942 0.182242 -9.180740
0.000000 0.000000 0.000000 0.000000 0.000000 -0.000000 1.068830 85.177100 -17.474100 -88.899300 1.733140 170.794000 15.735700 0.000005 -0.000001 111.137000 84.690700 -110.031000 8.984550 -0.406207 -0.000000 2.107170 3.771860 2.141730 16.377300 -0.000001 -0.000001 -4.480570 1.397010 -1.349770 6.456720 -0.000001 -0.000000 -1.228310 -0.209639 -2.700910 12.994200 -0.242716 4.980390 -93.699700 10.185200 -69.913800 5.348090 -0.000007 -0.000001 -51.274600 -31.424100 18.954500 24.328600 0.000019 0.000005 46.276100 21.509900 -70.675000 22.291600 -0.000001 0.000005 47.249700 4.155130 21.979300 12.994500 -0.242716 -4.980390 88.461300 5.350080 -73.929200 -5.348130 -0.000001 -0.000004 -64.090900 -3.798970 0.536321 -24.328900 0.000322 -0.000009 -0.160599 -0.103329 -57.104800 -22.291500 -0.000108 -0.000004 62.365400 5.333440 -0.886840 -2.192480 -6.469440 -0.000000 -179.372000 -3.431240 -44.142800 39.081100 -0.000007 -0.000012 0.092480 0.015754 99.661500 40.985400 -0.000006 -0.000013 -3.917100 -5.248840 -51.873500 11.754300 -0.000000 0.000003 0.002192 0.054947 -14.348000 -2.192510 6.469440 -0.000001 -175.808000 5.269890 163.030000 -39.081100 -0.002282 -0.040193 0.001291 0.001682 49.339600 -40.985400 0.000008 0.000006 -5.087170 1.225790 -87.944800 -11.754300 -0.000006 -0.000006 0.002331 0.062738 -14.028500
